<svg width="72" height="72" viewBox="0 0 72 72" fill="none" xmlns="http://www.w3.org/2000/svg">
<rect width="72" height="72" rx="36" fill="black"/>
<path d="M13.6637 28.0225C14.0517 28.0225 14.4845 28.03 14.962 28.0451C15.4545 28.0601 15.9544 28.1051 16.4618 28.1802C16.9841 28.2403 17.484 28.3455 17.9615 28.4957C18.454 28.6459 18.8942 28.8562 19.2822 29.1265C19.6702 29.3969 19.9761 29.7424 20.2 30.163C20.4387 30.5835 20.5581 31.0942 20.5581 31.6951C20.5581 32.4311 20.3641 33.0694 19.9761 33.6102C19.5881 34.1359 19.1031 34.6316 18.5211 35.0972C17.9392 35.5629 17.3049 36.0435 16.6185 36.5392C15.932 37.0199 15.2978 37.5831 14.7158 38.229C14.1338 38.8599 13.6488 39.6184 13.2608 40.5046C12.8728 41.3758 13.4967 42.4423 13.4967 43.704H11V28.0225H13.6637ZM12.8654 40.2042C13.1041 39.4682 13.41 38.8824 13.798 38.3267C14.201 37.7559 15.2157 36.9147 15.6634 36.4491C16.1111 35.9834 16.5608 35.5028 17.0234 35.0972C17.5288 34.5715 17.1557 35.0071 17.5288 34.5715C17.9018 34.1359 18.2973 33.5563 18.5211 33.0606C18.7599 32.565 18.7674 32.3409 18.7674 31.6951C18.7674 30.8089 18.5585 30.1404 18.1406 29.6898C17.7228 29.2392 17.2229 29.119 16.5961 28.9388C15.9842 28.7585 15.3129 28.6578 14.5966 28.6578C13.8953 28.6427 13.2459 28.6578 12.6788 28.6578L12.8654 40.2042Z" fill="white"/>
<path d="M32.7868 35.8407C32.7868 36.9523 32.6674 38.0037 32.4286 38.9951C32.1899 39.9714 31.8243 40.8276 31.3318 41.5636C30.8543 42.2846 30.2499 42.8554 29.5187 43.2759C28.8024 43.6965 27.9592 43.9068 26.9892 43.9068C26.1983 43.9068 25.579 43.7266 25.1313 43.3661C24.6837 42.9905 24.4076 42.5399 24.3031 42.0142C24.1987 41.4735 24.2733 40.9027 24.527 40.3019C24.7807 39.686 25.2134 39.1378 25.8253 38.6571C25.303 38.6871 24.803 38.6271 24.3255 38.4769C23.8629 38.3267 23.4525 38.0938 23.0944 37.7784C22.7362 37.4479 22.4452 37.0349 22.2214 36.5392C22.0125 36.0435 21.908 35.4652 21.908 34.8043V28H23.5868V34.8043C23.5868 35.6905 23.7734 36.3815 24.1464 36.8772C24.5195 37.3728 24.9821 37.6808 25.5343 37.8009C26.0864 37.9061 26.6908 37.8235 27.3474 37.5531C28.004 37.2827 28.6084 36.8171 29.1605 36.1562C29.7127 35.4803 30.1753 34.6166 30.5484 33.5651C30.9214 32.5137 31.108 31.2595 31.108 29.8025V28H32.7868V35.8407ZM27.2802 38.2966C26.4296 38.6571 25.788 39.1303 25.3552 39.7161C24.9224 40.2868 24.6911 40.8576 24.6613 41.4284C24.6464 41.9842 25.4373 41.4209 25.8253 41.8264C26.2133 42.232 26.1983 43.4787 26.9892 43.4787C27.8399 43.4787 28.5338 43.2609 29.071 42.8253C29.6082 42.3747 30.0261 41.7889 30.3245 41.0679C30.6379 40.3469 30.8468 39.5283 30.9513 38.612C31.0557 37.6958 31.108 36.772 31.108 35.8407V33.3173C30.7498 34.6842 30.2201 35.7732 29.5187 36.5843C28.8322 37.3954 28.0861 37.9662 27.2802 38.2966Z" fill="white"/>
<path d="M34.1276 28.0225H36.7913C37.1793 28.0225 37.6195 28.03 38.112 28.0451C38.6045 28.0601 39.1044 28.1051 39.6118 28.1802C40.1191 28.2403 40.619 28.3455 41.1115 28.4957C41.604 28.6459 42.0442 28.8562 42.4322 29.1265C42.8202 29.3969 43.1261 29.7424 43.3499 30.163C43.5887 30.5835 43.7081 31.0942 43.7081 31.6951C43.7081 32.2208 43.6036 32.6864 43.3947 33.092C43.2007 33.4975 42.9321 33.8806 42.5889 34.2411C42.2606 34.5865 41.88 34.9245 41.4473 35.2549C41.0145 35.5854 40.6661 36.1937 40.6661 36.1937C41.1397 36.6519 41.2607 36.6443 41.6935 37.0799C42.1263 37.5005 42.5068 37.9962 42.8351 38.567C43.1783 39.1227 43.4768 39.7161 43.7305 40.3469C43.9991 40.9628 44.2826 41.5185 44.5811 42.0142C44.8945 42.4949 45.2377 42.8704 45.6108 43.1408C45.9838 43.3961 46.439 43.4487 46.9762 43.2985L47.0657 43.704C46.1256 43.9594 45.3496 44.0495 44.7378 43.9744C44.1259 43.9143 43.626 43.7491 43.238 43.4787C42.8649 43.1933 42.5814 42.8328 42.3874 42.3972C42.1934 41.9466 42.0367 41.466 41.9173 40.9553C41.8129 40.4446 41.7233 39.9414 41.6487 39.4457C41.5741 38.935 41.4622 38.4769 41.313 38.0713C41.1637 37.6507 40.9623 37.3128 40.7086 37.0574C40.4549 36.787 40.0893 36.6519 39.6118 36.6519C39.1342 37.0274 38.6641 37.4329 38.2015 37.8685C37.7538 38.3041 37.3509 38.7998 36.9928 39.3556C36.6346 39.9113 36.3436 40.5497 36.1198 41.2707C35.9109 41.9767 35.8064 42.7878 35.8064 43.704H34.1276V28.0225ZM36.7913 28.4506C36.0699 28.4675 35.7899 28.5543 35.7301 28.8787L35.8064 40.8651C36.0452 40.1291 36.3586 39.4832 36.7466 38.9275C37.1495 38.3567 37.5748 37.8385 38.0225 37.3728C38.4851 36.9072 38.9402 36.4716 39.3879 36.0661C39.8505 35.6605 40.2684 35.2399 40.6414 34.8043C41.0145 34.3687 41.313 33.9031 41.5368 33.4074C41.7756 32.9117 41.895 32.3409 41.895 31.6951C41.895 30.899 41.7233 30.2831 41.3801 29.8475C41.0369 29.3969 40.6041 29.074 40.0818 28.8787C39.5744 28.6684 39.0223 28.5483 38.4254 28.5182C37.8285 28.4731 37.2838 28.4506 36.7913 28.4506Z" fill="white"/>
<path d="M55.7687 35.5103C55.7687 36.4491 55.7471 37.7183 55.6278 38.8148C55.5084 39.9113 55.2398 40.8276 54.8219 41.5636C54.419 42.2846 53.9042 42.8403 53.2774 43.2309C52.6656 43.6064 52.0239 43.8242 51.3523 43.8843C50.6808 43.9594 50.0242 43.8843 49.3825 43.659C48.7558 43.4337 48.2185 43.0732 47.7708 42.5775C47.3232 42.0818 47.0098 41.466 46.8307 40.7299C46.6516 39.9939 46.6889 39.1453 46.9426 38.184C47.1068 37.5531 47.3903 36.9448 47.7932 36.359C48.1962 35.7581 48.6364 35.1798 49.1139 34.6241C49.6064 34.0683 50.0914 33.5201 50.5689 32.9793C51.0613 32.4386 51.4792 31.8978 51.8224 31.3571C52.1656 30.8164 52.3969 30.2756 52.5163 29.7349C52.6357 29.1791 52.5686 28.6083 52.3149 28.0225H54.1504L61 43.704H59.1645L55.7687 35.5103ZM52.9864 29.5321C52.9566 30.0428 52.8223 30.5385 52.5835 31.0191C52.3596 31.4998 52.0761 31.9805 51.7329 32.4611C51.3897 32.9268 51.024 33.4074 50.636 33.9031C50.248 34.3838 49.8899 34.8869 49.5616 35.4127C49.2333 35.9384 48.9572 36.4941 48.7334 37.0799C48.5095 37.6657 48.3976 38.2891 48.3976 38.95C48.3976 39.7912 48.5468 40.5046 48.8453 41.0904C49.1587 41.6762 49.5541 42.1194 50.0317 42.4198C50.5092 42.7202 51.024 42.8779 51.5762 42.8929C52.1433 42.9079 52.673 42.7652 53.1655 42.4648C53.6729 42.1644 54.1131 41.6988 54.4862 41.0679C54.8592 40.437 55.0905 39.6334 55.1801 38.6571C55.2845 37.6657 55.2025 36.5017 54.9338 35.1648C54.6801 33.828 54.1802 32.2959 53.4341 30.5685L52.9864 29.5321Z" fill="white"/>
</svg>
