<svg width="35" height="35" viewBox="0 0 35 35" fill="none" xmlns="http://www.w3.org/2000/svg">
<path d="M35 17.5C35 27.165 27.165 35 17.5 35C7.83502 35 0 27.165 0 17.5C0 7.83502 7.83502 0 17.5 0C27.165 0 35 7.83502 35 17.5Z" fill="white"/>
<path d="M32.9412 17.5C32.9412 26.0279 26.0279 32.9412 17.5 32.9412C8.97208 32.9412 2.05882 26.0279 2.05882 17.5C2.05882 8.97208 8.97208 2.05882 17.5 2.05882C26.0279 2.05882 32.9412 8.97208 32.9412 17.5Z" fill="black" fill-opacity="0.8"/>
<path fill-rule="evenodd" clip-rule="evenodd" d="M17.5 9.00735C21.2523 9.00735 24.2941 12.0146 24.2941 15.7243C24.2941 17.4653 23.6239 19.0514 22.5249 20.2447L22.2096 20.6654L21.3603 21.5147L19.4301 23.5993L18.5809 24.7574L17.8088 25.9926C17.5916 26.1747 17.4733 26.1739 17.2684 25.9926L16.4722 24.7187C16.4143 24.6319 16.2261 24.3713 15.6471 23.6765C14.875 22.75 14.3766 22.3119 13.5625 21.4375L12.9449 20.7426L12.8134 20.5872C11.515 19.3638 10.7059 17.6375 10.7059 15.7243C10.7059 12.0146 13.7477 9.00735 17.5 9.00735ZM17.5 11.6324C15.1122 11.6324 13.1765 13.5681 13.1765 15.9559C13.1765 18.3437 15.1122 20.2794 17.5 20.2794C19.8878 20.2794 21.8235 18.3437 21.8235 15.9559C21.8235 13.5681 19.8878 11.6324 17.5 11.6324Z" fill="white"/>
<path d="M17.5 0.125C27.0959 0.125 34.875 7.90405 34.875 17.5C34.875 27.0959 27.0959 34.875 17.5 34.875C7.90405 34.875 0.125 27.0959 0.125 17.5C0.125 7.90405 7.90405 0.125 17.5 0.125ZM32.8164 17.5C32.8164 25.9589 25.9589 32.8164 17.5 32.8164C9.04111 32.8164 2.18359 25.9589 2.18359 17.5C2.18359 9.04111 9.04111 2.18359 17.5 2.18359C25.9589 2.18359 32.8164 9.04111 32.8164 17.5ZM21.6982 15.9561C21.6981 18.2748 19.8187 20.1543 17.5 20.1543C15.1813 20.1543 13.3019 18.2748 13.3018 15.9561C13.3018 13.6373 15.1812 11.7578 17.5 11.7578C19.8188 11.7578 21.6982 13.6373 21.6982 15.9561ZM24.1689 15.7246C24.1689 17.3259 23.5908 18.7933 22.6299 19.9355L22.4326 20.1592L22.4248 20.1699L22.1143 20.583L21.2715 21.4258L21.2686 21.4297L19.3389 23.5146L19.334 23.5195L19.3291 23.5254L18.4805 24.6836H18.4795L18.4746 24.6914L17.7148 25.9062C17.6181 25.9852 17.5679 26.0039 17.5342 26.0039C17.5016 26.0039 17.4535 25.987 17.3623 25.9082L16.5781 24.6523L16.5762 24.6494L16.3535 24.3486C16.2254 24.1839 16.0326 23.9441 15.7432 23.5967C15.1624 22.8998 14.7313 22.4726 14.2119 21.9375L13.6543 21.3525L13.0381 20.6592H13.0371L12.9092 20.5068L12.8135 20.5869L12.9092 20.5059L12.8994 20.4961L12.666 20.2656C11.5286 19.0832 10.8311 17.4844 10.8311 15.7246C10.8311 12.0853 13.8154 9.13281 17.5 9.13281C21.1846 9.13281 24.1689 12.0853 24.1689 15.7246ZM33.0664 17.5C33.0664 8.90304 26.097 1.93359 17.5 1.93359C8.90304 1.93359 1.93359 8.90304 1.93359 17.5C1.93359 26.097 8.90304 33.0664 17.5 33.0664C26.097 33.0664 33.0664 26.097 33.0664 17.5ZM21.9482 15.9561C21.9482 13.4992 19.9569 11.5078 17.5 11.5078C15.0431 11.5078 13.0518 13.4992 13.0518 15.9561C13.0519 18.4128 15.0432 20.4043 17.5 20.4043C19.9568 20.4043 21.9481 18.4128 21.9482 15.9561ZM24.4189 15.7246C24.4189 11.9446 21.32 8.88281 17.5 8.88281C13.68 8.88281 10.5811 11.9446 10.5811 15.7246C10.5812 17.6684 11.401 19.4228 12.7168 20.668H12.7178L12.8496 20.8232L12.8516 20.8262L13.4688 21.5205L13.4707 21.5225C14.2926 22.4052 14.781 22.8331 15.5508 23.7568C15.8399 24.1038 16.031 24.341 16.1562 24.502L16.3682 24.7881L17.1621 26.0586L17.1719 26.0742L17.1855 26.0859C17.2922 26.1803 17.4034 26.2538 17.5342 26.2539C17.6634 26.2539 17.7768 26.1826 17.8887 26.0889L17.9043 26.0762L17.915 26.0586L18.6816 24.8311L19.5283 23.6768L21.4482 21.6035L22.3047 20.7471L22.3096 20.7402L22.6201 20.3252C23.7372 19.1104 24.4189 17.4964 24.4189 15.7246Z" stroke="black" stroke-opacity="0.15" stroke-width="0.25"/>
</svg>
